<?xml version="1.0" encoding="UTF-8" standalone="no"?>
<svg
   xmlns:dc="http://purl.org/dc/elements/1.1/"
   xmlns:cc="http://creativecommons.org/ns#"
   xmlns:rdf="http://www.w3.org/1999/02/22-rdf-syntax-ns#"
   xmlns:svg="http://www.w3.org/2000/svg"
   xmlns="http://www.w3.org/2000/svg"
   xmlns:sodipodi="http://sodipodi.sourceforge.net/DTD/sodipodi-0.dtd"
   xmlns:inkscape="http://www.inkscape.org/namespaces/inkscape"
   width="137.83516"
   height="367.32043"
   id="svg3779"
   version="1.1"
   inkscape:version="0.48.5 r10040"
   sodipodi:docname="symbol-male-and-female.svg">
  <metadata
     id="metadata3801">
    <rdf:RDF>
      <cc:Work
         rdf:about="">
        <dc:format>image/svg+xml</dc:format>
        <dc:type
           rdf:resource="http://purl.org/dc/dcmitype/StillImage" />
      </cc:Work>
    </rdf:RDF>
  </metadata>
  <defs
     id="defs3799" />
  <sodipodi:namedview
     pagecolor="#ffffff"
     bordercolor="#666666"
     borderopacity="1"
     objecttolerance="10"
     gridtolerance="10"
     guidetolerance="10"
     inkscape:pageopacity="0"
     inkscape:pageshadow="2"
     inkscape:window-width="1920"
     inkscape:window-height="1017"
     id="namedview3797"
     showgrid="false"
     fit-margin-top="0"
     fit-margin-left="0"
     fit-margin-right="0"
     fit-margin-bottom="0"
     inkscape:zoom="2.3657072"
     inkscape:cx="-0.48056002"
     inkscape:cy="123.17404"
     inkscape:window-x="-8"
     inkscape:window-y="-8"
     inkscape:window-maximized="1"
     inkscape:current-layer="g3783" />
  <title
     id="title3781">Symbol Male and Female</title>
  <g
     id="g3783"
     transform="translate(-216.79607,-16.000001)">
    <title
       id="title3785">Layer 1</title>
    <g
       id="svg_1">
      <g
         id="g1589">
        <path
           d="M 97.633598,47.414001"
           id="path1593"
           inkscape:connector-curvature="0"
           style="fill:#ff007f" />
      </g>
    </g>
    <g
       id="svg_2">
      <path
         d="m 254.40042,75.940079 c -20.84225,0 -37.60435,17.87822 -37.60435,40.177901 l 0,95.0435 c 0,18.47805 25.71107,18.47805 25.71107,0 l 0,-86.90747 6.0869,0 0,240.80876 c 0,24.7056 34.23878,23.97879 34.23878,0 l 0,-140.97898 5.89686,0 0,140.97898 c 0,23.97879 34.42608,24.7056 34.42608,0 l 0,-240.80876 5.94434,0 0,86.90747 c 0,18.62113 25.57767,18.62018 25.53106,0 l 0,-94.47494 c 0,-20.562753 -15.18209,-40.70382 -38.06582,-40.70382 l -62.16492,-0.04264 z"
         id="path1599"
         inkscape:connector-curvature="0"
         style="fill:#0000ff" />
      <g
         id="g1601">
        <path
           d="m 284.134,80.828003 c 17.901,0 32.414,-14.511002 32.414,-32.414001 0,-17.900002 -14.513,-32.414001 -32.414,-32.414001 -17.89999,0 -32.414,14.514 -32.414,32.414001 0,17.903 14.51401,32.414001 32.414,32.414001 z"
           id="path1603"
           inkscape:connector-curvature="0"
           style="fill:#0000ff" />
        <path
           d="M 284.134,48.414001"
           id="path1605"
           inkscape:connector-curvature="0"
           style="fill:#0000ff" />
      </g>
    </g>
  </g>
</svg>
